<?xml version="1.0" encoding="utf-8"?>
<!-- Generator: Adobe Illustrator 23.0.2, SVG Export Plug-In . SVG Version: 6.00 Build 0)  -->
<svg id="Ebene_1" style="enable-background:new 0 0 841.9 241.5;" version="1.1" viewBox="0 0 841.9 241.5"
     x="0px"
     xml:space="preserve" xmlns="http://www.w3.org/2000/svg" y="0px">
<style type="text/css">
	.st0 {
    fill: #536366;
  }

  .st1 {
    fill: url(#SVGID_1_);
  }
</style>
  <g>
	<path class="st0" d="M218.5,95.3c11.4,0,17.5,5.2,19.8,12.6c0.7,1.8,0.1,2.6-1.5,3.2l-3.3,1c-1.7,0.8-2.5,0.2-3.2-1.5
		c-1.7-5.2-5.3-7.9-12.2-7.9c-8.2,0-12.2,4.1-12.2,11.1V128c0,7,4.1,11.2,12.2,11.2c6.8,0,10.6-2.9,12.3-8.2
		c0.8-1.8,1.4-2.1,3.2-1.5l3.3,0.9c1.7,0.7,2.3,1.4,1.6,3.2c-3,8.4-9.4,13-20.6,13c-13.9,0-20.5-7.2-20.5-19v-13.4
		C197.5,102.5,204.2,95.3,218.5,95.3z"/>
    <path class="st0" d="M276.5,95.3c13.5,0,21.1,6.9,21.1,18v15.3c0,11.1-7.6,17.9-21.1,17.9c-13.2,0-21-6.9-21-17.9v-15.3
		C255.4,102.2,263.2,95.3,276.5,95.3z M276.5,102.9c-7.9,0-12.7,3.9-12.7,10.3v15.4c0,6.5,4.8,10.3,12.7,10.3
		c8,0,12.8-3.9,12.8-10.3v-15.4C289.3,106.8,284.5,102.9,276.5,102.9z"/>
    <path class="st0" d="M334.7,95.3c5.8,0,10.7,1.4,13.2,2.1V82.7c0-1.7,0.6-2.3,2.3-2.3h3.9c1.6,0,2.2,0.6,2.2,2.3v55.8
		c0,3.1-0.7,3.9-3.7,5.2c-3.7,1.4-8.8,2.9-16.8,2.9c-13.8,0-20.1-6.9-20.1-18.9v-13.2C315.6,102.2,321.9,95.3,334.7,95.3z
		 M336.3,103c-8.5,0-12.2,4-12.2,11.7v12.7c0,7.5,4.1,11.5,12.4,11.5c4.1,0,7.6-0.7,10.1-1.5c1.2-0.5,1.3-0.8,1.3-1.8v-30.5
		C345.7,104.4,341.6,103,336.3,103z"/>
    <path class="st0" d="M396.7,95.3c14.5,0,21.2,8.4,21.2,19.4v5.5c0,2-0.8,3.3-3.5,3.3h-30.6v4.5c0,7.1,4.3,11.3,12.6,11.3
		c6.7,0,10.7-2.5,13.1-6.5c1.1-1.6,2-1.8,3.7-0.8l2.5,1.3c1.7,0.8,1.9,2.1,0.8,3.7c-3.3,5.7-9.4,9.7-20.2,9.7
		c-14.7,0-20.9-8.1-20.9-19.5v-11.7C375.5,102.7,382.8,95.3,396.7,95.3z M396.7,102.4c-8.5,0-12.9,4.5-12.9,11.8v2.7h25.7v-2.7
		C409.6,106.9,405.3,102.4,396.7,102.4z"/>
    <path class="st0" d="M454.2,95.3c11.4,0,17.5,5.2,19.8,12.6c0.7,1.8,0.1,2.6-1.5,3.2l-3.3,1c-1.7,0.8-2.5,0.2-3.2-1.5
		c-1.7-5.2-5.3-7.9-12.2-7.9c-8.2,0-12.2,4.1-12.2,11.1V128c0,7,4.1,11.2,12.2,11.2c6.8,0,10.6-2.9,12.3-8.2
		c0.7-1.8,1.4-2.1,3.2-1.5l3.3,0.9c1.7,0.7,2.3,1.4,1.6,3.2c-3,8.4-9.4,13-20.6,13c-13.9,0-20.5-7.2-20.5-19v-13.4
		C433.1,102.5,439.9,95.3,454.2,95.3z"/>
    <path class="st0" d="M512.1,95.3c14.5,0,21.2,8.4,21.2,19.4v5.5c0,2-0.8,3.3-3.5,3.3h-30.6v4.5c0,7.1,4.3,11.3,12.6,11.3
		c6.7,0,10.7-2.5,13.1-6.5c1.1-1.6,2-1.8,3.7-0.8l2.5,1.3c1.7,0.8,1.9,2.1,0.8,3.7c-3.3,5.7-9.4,9.7-20.2,9.7
		c-14.7,0-20.9-8.1-20.9-19.5v-11.7C490.9,102.7,498.2,95.3,512.1,95.3z M512.1,102.4c-8.5,0-12.9,4.5-12.9,11.8v2.7H525v-2.7
		C525,106.9,520.7,102.4,512.1,102.4z"/>
    <path class="st0" d="M573.6,95.3c13.2,0,19.1,7,19.1,18.6v29c0,1.7-0.6,2.3-2.3,2.3h-3.9c-1.7,0-2.3-0.6-2.3-2.3v-28.8
		c0-7.4-3.7-11.2-11.7-11.2c-4.6,0-8.3,0.8-10.9,1.7c-0.9,0.4-1.1,0.9-1.1,1.7v36.6c0,1.7-0.6,2.3-2.3,2.3h-3.9
		c-1.6,0-2.2-0.6-2.2-2.3v-39.2c0-2.9,0.7-4,3.6-5.3C559.3,97,564.8,95.3,573.6,95.3z"/>
    <path class="st0" d="M626.1,82.7v14h12.3c1.6,0,2.2,0.6,2.2,2.3v3.3c0,1.7-0.6,2.3-2.2,2.3h-12.3v21.9c0,10.2,3,12.2,12.1,12.2
		c1.8,0,2.3,0.5,2.3,2.3v3.4c0,1.7-0.6,2.2-2.3,2.3c-14.9,0.4-20.5-4.2-20.5-19.9v-22.1h-7.8c-1.7,0-2.3-0.6-2.3-2.3V99
		c0-1.7,0.6-2.3,2.3-2.3h7.8v-14c0-1.7,0.5-2.3,2.2-2.3h3.9C625.5,80.5,626.1,81,626.1,82.7z"/>
    <path class="st0" d="M680.8,95.3c1.7,0,2.3,0.6,2.3,2.3v3.2c0,1.7-0.6,2.3-2.3,2.3h-3.3c-4.6,0-8.1,0.7-10.8,1.6
		c-1.2,0.5-1.3,1-1.3,1.9v36.5c0,1.7-0.6,2.3-2.3,2.3h-3.9c-1.6,0-2.2-0.6-2.2-2.3v-39.5c0-2.9,0.7-4,3.6-5.3
		c3.5-1.3,8.9-2.7,17.2-2.9H680.8z"/>
    <path class="st0" d="M707.5,99v44c0,1.7-0.6,2.3-2.3,2.3h-3.9c-1.7,0-2.3-0.6-2.3-2.3V99c0-1.7,0.6-2.3,2.3-2.3h3.9
		C706.9,96.7,707.5,97.3,707.5,99z"/>
    <path class="st0" d="M748,95.3c11.4,0,17.5,5.2,19.8,12.6c0.7,1.8,0.1,2.6-1.5,3.2l-3.3,1c-1.7,0.8-2.5,0.2-3.2-1.5
		c-1.7-5.2-5.3-7.9-12.2-7.9c-8.2,0-12.2,4.1-12.2,11.1V128c0,7,4.1,11.2,12.2,11.2c6.8,0,10.6-2.9,12.3-8.2
		c0.8-1.8,1.4-2.1,3.2-1.5l3.3,0.9c1.7,0.7,2.3,1.4,1.6,3.2c-3,8.4-9.4,13-20.6,13c-13.9,0-20.5-7.2-20.5-19v-13.4
		C726.9,102.5,733.7,95.3,748,95.3z"/>
</g>
  <linearGradient gradientUnits="userSpaceOnUse" id="SVGID_1_" x1="88.6201" x2="160.463" y1="159.7" y2="87.8571">
	<stop offset="5.000000e-02" style="stop-color:#00AED2"/>
    <stop offset="1" style="stop-color:#87FFC5"/>
</linearGradient>
  <path class="st1" d="M127.7,155.4c-0.8-0.8-2.1-0.9-3.1-0.2c-4.4,3-9.4,4.3-13.8,4.3c-14,0-25.4-11.6-25-25.6
	c0.3-13.7,11.8-24.4,25.5-24.4h26.8c2.6,0,4.9,1.8,5.2,4.4c0.4,3.1-2,5.7-5,5.7h-27.1c-7.3,0-13.6,5.7-13.9,13
	c-0.3,7.7,5.9,14.1,13.5,14.1h26.9c18.4,0,33.7-14.5,34.1-32.9c0.4-18.8-14.8-34.2-33.5-34.2c-5.7,0-12.9,1.4-19.4,6.2
	c-1.2,0.9-1.3,2.6-0.3,3.6l2.8,2.8c0.8,0.8,2.1,0.9,3.1,0.2c4.4-3,9.4-4.3,13.8-4.3c14,0,25.4,11.6,25,25.6
	c-0.3,13.7-11.8,24.4-25.5,24.4H111c-2.6,0-4.9-1.8-5.2-4.4c-0.4-3.1,2-5.7,5-5.7h27.1c7.3,0,13.6-5.7,13.9-13
	c0.3-7.7-5.9-14.1-13.5-14.1h-26.9c-18.4,0-33.7,14.5-34.1,32.9c-0.4,18.8,14.8,34.2,33.5,34.2c5.7,0,12.9-1.4,19.4-6.2
	c1.2-0.9,1.3-2.6,0.3-3.6L127.7,155.4z"/>
</svg>
