<svg xmlns="http://www.w3.org/2000/svg" width="215.1" height="64.7" viewBox="0 0 215.1 64.7" style="enable-background:new 0 0 215.1 64.7"><style>.st8{fill:#002f6f}.st9{fill:#717171}</style><g id="ISO-Gruppe"><path class="st9" d="M204.8 61c-2.4 0-3.5-1.3-3.5-3.8 0-2.8 1.3-4.1 3.4-4.1 1.9 0 3 1.1 3 3.1 0 .3 0 .8-.1 1.3 0 0-1.9.1-4 .1 0 1.1.3 1.4 1.3 1.4.3 0 .8 0 2.3-.5l.4 1.8c-1.4.5-2.3.7-2.8.7zm.7-5.2c0-.9-.3-1.2-.9-1.2-.7 0-1 .3-1 1.7h1.9v-.5z"/><path class="st9" d="M211.3 61c-.7 0-1.2-.1-2.7-.5l.4-1.8c1.7.5 2.1.5 2.5.5.4 0 .7-.1.7-.6 0-.4-.1-.5-.8-.7l-1.2-.4c-.9-.3-1.5-.9-1.5-1.9 0-1.7 1.3-2.6 3-2.6.5 0 1.2 0 2.3.3l-.4 1.8c-1.3-.3-1.7-.3-2.1-.3-.4 0-.7.2-.7.6 0 .3.1.4.8.6l1.2.4c.9.3 1.5.9 1.5 2-.1 1.7-1.2 2.6-3 2.6z"/><path class="st8" d="M1.2 39.7V1h9.1v38.7H1.2z"/><path class="st8" d="M28.2 40.2c-3.4 0-6.2-.2-12.6-2.6l2.1-7.5c7.8 2.4 9.1 2.5 11.5 2.5 2.6 0 4.1-1.4 4.1-3.9 0-2-1.1-2.9-3.2-3.6l-6.2-2.2c-4.7-1.6-8.2-4.8-8.2-10.6 0-7.5 6-11.9 14-11.9 2.8 0 5.5.3 11.2 1.7L39 9.8c-6-1.4-8.2-1.7-10.2-1.7-2.5 0-4.1 1.1-4.1 3.7 0 1.8 1.1 2.6 3.3 3.4l6.2 2.2c4.7 1.7 8.1 4.7 8.1 10.7-.1 8-6.2 12.1-14.1 12.1z"/><path class="st8" d="M61.6 40.2c-10.4 0-16.3-5.4-16.3-19.7 0-13.8 6-20 16.3-20s16.2 5.6 16.2 19.9c0 14-6.1 19.8-16.2 19.8zm-.1-32.3c-4.9 0-6.6 1.8-6.6 12.5 0 10.5 1.8 12.5 6.7 12.5 4.8 0 6.7-1.9 6.7-12.5 0-10.8-2.2-12.5-6.8-12.5z"/><path class="st9" d="M177.3 20.4h19.3v19.3h-19.3z"/><path class="st9" d="M92.4 39.6c-5.2 0-7.3-2.9-7.3-9.3 0-6.7 2.5-9.3 7.6-9.3 1.4 0 2.8.1 5.3.9l-.6 2.3c-2.3-.8-3.5-1-4.6-1-3.3 0-5.1 1.2-5.1 7.1 0 5.8 1.7 7.2 4.8 7.2.8 0 1.8-.1 3.2-.5v-5.6h-3.6v-2.1H98v9.3c-2.1.6-4.2 1-5.6 1z"/><path class="st9" d="M113.4 39.3c-.3 0-.7.1-1 .1-1.3 0-2-.4-2.7-1.9l-2.8-5.6h-3.2v7.4h-2.4V21.2h5.7c3.4 0 5.7 1.5 5.7 5.2 0 2.6-1.2 4.2-3.4 5l2.6 4.9c.4.7.5.8 1.1.8h.5v2.2zm-6.6-16.1h-3.1V30h3c2.2 0 3.5-1.2 3.5-3.5-.2-2.1-1.1-3.3-3.4-3.3z"/><path class="st9" d="M121.8 39.6c-4 0-6.4-1.5-6.4-6.4v-12h2.5v12c0 3.1.9 4.3 3.9 4.3 2.9 0 4-1.2 4-4.3v-12h2.4v12c.1 4.6-2.3 6.4-6.4 6.4z"/><path class="st9" d="M136.7 32.4H134v7h-2.5V21.2h5.4c3.7 0 6 1.5 6 5.5 0 4.2-2.8 5.7-6.2 5.7zm.2-9.2H134v7.1h2.6c2 0 3.7-.6 3.7-3.6.1-2.8-1.5-3.5-3.4-3.5z"/><path class="st9" d="M150.3 32.4h-2.7v7h-2.5V21.2h5.4c3.7 0 6 1.5 6 5.5 0 4.2-2.8 5.7-6.2 5.7zm.2-9.2h-2.9v7.1h2.6c2 0 3.7-.6 3.7-3.6.1-2.8-1.6-3.5-3.4-3.5z"/><path class="st9" d="M158.7 39.3V21.2h10.2v2.1h-7.8v5.8h7.4v2.1h-7.4v6h7.8l.2 2.1h-10.4z"/><path class="st9" d="M1.1 60.8V50.4h2.5v10.5H1.1z"/><path class="st9" d="M10 52.4v8.4H7.5v-8.4H5.1v-2h7.2v2H10z"/><path class="st9" d="M16.7 64V49.9h1.7V64h-1.7z"/><path class="st9" d="M26.4 61c-.9 0-1.7-.1-3.4-.7l.6-2c2.1.7 2.5.7 3.1.7.7 0 1.1-.4 1.1-1.1 0-.5-.3-.8-.9-1l-1.7-.6C24 55.9 23 55 23 53.4c0-2 1.6-3.2 3.8-3.2.8 0 1.5.1 3 .5l-.5 2.1c-1.6-.4-2.2-.5-2.8-.5-.7 0-1.1.3-1.1 1 0 .5.3.7.9.9l1.7.6c1.3.5 2.2 1.3 2.2 2.9 0 2.2-1.7 3.3-3.8 3.3z"/><path class="st9" d="M36.1 60.8c-.6 2.5-1.6 3.3-3.2 3.3-.7 0-1.1-.2-1.9-.4l.5-1.7c.7.2 1.3.3 1.5.3.3 0 .5-.1.6-.6l.3-.9h-.7L31 53.3h2.2l1.3 4.5c.1.4.2.8.2 1.1h.1c0-.2.1-.7.1-1l1-4.5H38l-1.9 7.4z"/><path class="st9" d="M41.5 61c-.7 0-1.2-.1-2.7-.5l.4-1.8c1.7.5 2.1.5 2.5.5.4 0 .7-.1.7-.6 0-.4-.1-.5-.8-.7l-1.2-.4c-.9-.3-1.5-.9-1.5-1.9 0-1.7 1.3-2.6 3-2.6.5 0 1.2 0 2.3.3l-.4 1.8c-1.3-.3-1.7-.3-2.1-.3-.4 0-.7.2-.7.6 0 .3.1.4.8.6l1.2.4c.9.3 1.5.9 1.5 2-.1 1.7-1.3 2.6-3 2.6z"/><path class="st9" d="M48.5 61c-1.4 0-2-.7-2-2.2v-3.7h-1v-1.8h1v-1.5l2.2-.4v1.9h2v1.8h-2v3.5c0 .3.1.4.3.4.2 0 .5-.1 1.7-.5l.3 1.9c-1.5.5-2 .6-2.5.6z"/><path class="st9" d="M55.5 61c-2.4 0-3.5-1.3-3.5-3.8 0-2.8 1.3-4.1 3.4-4.1 1.9 0 3 1.1 3 3.1 0 .3 0 .8-.1 1.3 0 0-1.9.1-4 .1 0 1.1.3 1.4 1.3 1.4.3 0 .8 0 2.3-.5l.4 1.8c-1.3.5-2.2.7-2.8.7zm.7-5.2c0-.9-.3-1.2-.9-1.2-.7 0-1 .3-1 1.7h1.9v-.5z"/><path class="st9" d="M68 60.8v-5.3c0-.4-.1-.5-.5-.5-.3 0-.8.1-1.4.4v5.4H64v-5.3c0-.4-.1-.5-.5-.5-.3 0-.9.1-1.4.4v5.4H60v-7.6h2.1v.6h.1c1.1-.6 1.8-.8 2.4-.8.7 0 1.1.2 1.3.8h.1c1.1-.7 1.7-.8 2.3-.8 1.2 0 1.8.7 1.8 1.9v5.9H68z"/><path class="st9" d="M74.3 61c-.7 0-1.2-.1-2.7-.5l.4-1.8c1.7.5 2.1.5 2.5.5.4 0 .7-.1.7-.6 0-.4-.1-.5-.8-.7l-1.2-.4c-.9-.3-1.5-.9-1.5-1.9 0-1.7 1.3-2.6 3-2.6.5 0 1.2 0 2.3.3l-.4 1.8c-1.3-.3-1.7-.3-2.1-.3-.4 0-.7.2-.7.6 0 .3.1.4.8.6l1.2.4c.9.3 1.5.9 1.5 2 0 1.7-1.2 2.6-3 2.6z"/><path class="st9" d="M91.7 61c-.9 0-1.7-.1-3.4-.7l.6-2c2.1.7 2.5.7 3.1.7.7 0 1.1-.4 1.1-1.1 0-.5-.3-.8-.9-1l-1.7-.6c-1.3-.4-2.2-1.3-2.2-2.9 0-2 1.6-3.2 3.8-3.2.8 0 1.5.1 3 .5l-.5 2.1c-1.6-.4-2.2-.5-2.8-.5-.7 0-1.1.3-1.1 1 0 .5.3.7.9.9l1.7.6c1.3.5 2.2 1.3 2.2 2.9 0 2.2-1.7 3.3-3.8 3.3z"/><path class="st9" d="M100.2 61c-2.2 0-3.5-1.2-3.5-3.9 0-2.8 1.4-3.9 3.6-3.9 2 0 3.5 1 3.5 3.9-.1 2.6-1.4 3.9-3.6 3.9zm0-6.2c-.8 0-1.3.3-1.3 2.2 0 1.9.4 2.2 1.3 2.2s1.3-.3 1.3-2.2c-.1-1.9-.5-2.2-1.3-2.2z"/><path class="st9" d="M105.3 60.8V50l2.2-.2v11.1h-2.2z"/><path class="st9" d="M113.9 60.8v-.6h-.1c-1.2.6-1.9.8-2.4.8-1.3 0-1.9-.8-1.9-2.1v-5.7h2.1v5.3c0 .3.1.5.5.5.5 0 1.1-.1 1.6-.4v-5.4h2.1v7.6h-1.9z"/><path class="st9" d="M120.5 61c-1.4 0-2-.7-2-2.2v-3.7h-1v-1.8h1v-1.5l2.2-.4v1.9h2v1.8h-2v3.5c0 .3.1.4.3.4.2 0 .5-.1 1.7-.5l.3 1.9c-1.5.5-2 .6-2.5.6z"/><path class="st9" d="M125.6 52.4c-.8 0-1.3-.4-1.3-1.2s.5-1.2 1.3-1.2c.7 0 1.3.4 1.3 1.2-.1.7-.5 1.2-1.3 1.2zm-1.1 8.4v-7.6h2.2v7.6h-2.2z"/><path class="st9" d="M131.8 61c-2.2 0-3.5-1.2-3.5-3.9 0-2.8 1.4-3.9 3.6-3.9 2 0 3.5 1 3.5 3.9-.1 2.6-1.4 3.9-3.6 3.9zm0-6.2c-.8 0-1.3.3-1.3 2.2 0 1.9.4 2.2 1.3 2.2s1.3-.3 1.3-2.2c0-1.9-.5-2.2-1.3-2.2z"/><path class="st9" d="M141.3 60.8v-5.3c0-.3-.1-.5-.5-.5-.5 0-1.1.1-1.7.4v5.4H137v-7.6h2.1v.6h.1c1.1-.6 1.7-.8 2.4-.8 1.2 0 1.9.5 1.9 2v5.7h-2.2z"/><path class="st9" d="M147.6 61c-.7 0-1.2-.1-2.7-.5l.4-1.8c1.7.5 2.1.5 2.5.5.4 0 .7-.1.7-.6 0-.4-.1-.5-.8-.7l-1.2-.4c-.9-.3-1.5-.9-1.5-1.9 0-1.7 1.3-2.6 3-2.6.5 0 1.2 0 2.3.3l-.4 1.8c-1.3-.3-1.7-.3-2.1-.3-.4 0-.7.2-.7.6 0 .3.1.4.8.6l1.2.4c.9.3 1.5.9 1.5 2-.1 1.7-1.3 2.6-3 2.6z"/><path class="st9" d="M164.9 61c-.9 0-1.7-.1-3.4-.7l.6-2c2.1.7 2.5.7 3.1.7.7 0 1.1-.4 1.1-1.1 0-.5-.3-.8-.9-1l-1.7-.6c-1.3-.4-2.2-1.3-2.2-2.9 0-2 1.6-3.2 3.8-3.2.8 0 1.5.1 3 .5l-.5 2.1c-1.6-.4-2.2-.5-2.8-.5-.7 0-1.1.3-1.1 1 0 .5.3.7.9.9l1.7.6c1.3.5 2.2 1.3 2.2 2.9 0 2.2-1.6 3.3-3.8 3.3z"/><path class="st9" d="M173.4 61c-2.4 0-3.5-1.3-3.5-3.8 0-2.8 1.3-4.1 3.4-4.1 1.9 0 3 1.1 3 3.1 0 .3 0 .8-.1 1.3 0 0-1.9.1-4 .1 0 1.1.3 1.4 1.3 1.4.3 0 .8 0 2.3-.5l.4 1.8c-1.4.5-2.2.7-2.8.7zm.7-5.2c0-.9-.3-1.2-.9-1.2-.7 0-1 .3-1 1.7h1.9v-.5z"/><path class="st9" d="M182.1 55.4c-.3-.1-.6-.2-.8-.2-.5 0-.8.1-1.3.4v5.2h-2.1v-7.6h2.1v.8h.1c.7-.7 1.1-.9 1.5-.9.2 0 .4 0 .7.1l-.2 2.2z"/><path class="st9" d="M187.5 60.8h-2.4l-2.3-7.6h2.2l1.2 4.1c.1.4.1.9.1 1.2h.1c0-.2.1-.8.2-1.2l1.1-4.1h2.1l-2.3 7.6z"/><path class="st9" d="M192.1 52.4c-.8 0-1.3-.4-1.3-1.2s.5-1.2 1.3-1.2c.7 0 1.3.4 1.3 1.2-.1.7-.5 1.2-1.3 1.2zm-1.1 8.4v-7.6h2.2v7.6H191z"/><path class="st9" d="M198 61c-2.1 0-3.3-1.2-3.3-4 0-2.6 1.3-3.9 3.2-3.9.6 0 1 0 2.1.3l-.4 1.9c-.7-.3-1.2-.3-1.5-.3-.9 0-1.2.5-1.2 2 0 1.7.3 2.1 1.2 2.1.3 0 .7-.1 1.6-.5l.4 1.9c-1.1.4-1.6.5-2.1.5z"/><path class="st9" d="M154.5 55.5h2.1v2.1h-2.1z"/><path class="st9" d="M81.3 55.5h2.1v2.1h-2.1z"/><path class="st9" d="M81.3 55.5h2.1v2.1h-2.1z"/><path class="st9" d="M100.2 61c-2.2 0-3.5-1.2-3.5-3.9 0-2.8 1.4-3.9 3.6-3.9 2 0 3.5 1 3.5 3.9-.1 2.6-1.4 3.9-3.6 3.9zm0-6.2c-.8 0-1.3.3-1.3 2.2 0 1.9.4 2.2 1.3 2.2s1.3-.3 1.3-2.2c-.1-1.9-.5-2.2-1.3-2.2z"/><path class="st9" d="M81.3 55.5h2.1v2.1h-2.1z"/></g></svg>