<svg viewBox="0 0 283.46 55.14" xmlns="http://www.w3.org/2000/svg">
  <defs>
    <style>.cls-1 {
      fill: #d50c2d;
    }

    .cls-2 {
      fill: #575756;
    }</style>
  </defs>
  <title>logo-hetzner</title>
  <g data-name="Ebene 2" id="Ebene_2">
    <g data-name="Ebene 1" id="Ebene_1-2">
      <path class="cls-1"
            d="M237.28,26.22H211.86V20.73h20.38a2,2,0,0,0,1.95-1.94V15.08a1.94,1.94,0,0,0-1.93-1.95H211.86V7.64h25.42a1.94,1.94,0,0,0,1.94-1.94V2A2,2,0,0,0,237.28,0H206.07A2,2,0,0,0,204.13,2V31.89a1.94,1.94,0,0,0,1.94,1.94h31.21a1.94,1.94,0,0,0,1.94-1.94V28.16A1.94,1.94,0,0,0,237.28,26.22Z"/>
      <path class="cls-1"
            d="M35,0H31.13A2,2,0,0,0,29.19,2V13.07H7.82V1.94A2,2,0,0,0,5.87,0H2A1.94,1.94,0,0,0,0,1.94v30A2,2,0,0,0,2,33.89H5.87a2,2,0,0,0,2-1.95V20.68H29.19V31.94a2,2,0,0,0,1.94,1.94H35a1.94,1.94,0,0,0,2-1.94V2A1.94,1.94,0,0,0,35,0Z"/>
      <path class="cls-1"
            d="M75.23,26.22H49.8V20.74H70.18a2,2,0,0,0,1.95-1.94V15.08a1.94,1.94,0,0,0-1.93-1.95H49.8V7.64H75.22a2,2,0,0,0,2-1.94V2a2,2,0,0,0-2-1.94H44A2,2,0,0,0,42.07,2V31.89A1.94,1.94,0,0,0,44,33.83H75.22a2,2,0,0,0,2-1.94V28.16A2,2,0,0,0,75.23,26.22Z"/>
      <path class="cls-1"
            d="M115.58.05H83.25A1.94,1.94,0,0,0,81.31,2V5.73a2,2,0,0,0,1.94,1.94H95.56V31.92a2,2,0,0,0,1.94,1.94h4.17a1.94,1.94,0,0,0,1.94-1.94V7.67h12a2,2,0,0,0,1.94-1.94V2A1.94,1.94,0,0,0,115.58.05Z"/>
      <path class="cls-1"
            d="M272.22,21.53a9.83,9.83,0,0,0,5.57-3l.06-.05a11.16,11.16,0,0,0,2.56-7.29A11.12,11.12,0,0,0,278.67,5,9.86,9.86,0,0,0,270.58.18l-1.67,0c-1.06,0-2.81-.06-3.88-.06L245.78,0A2,2,0,0,0,243.83,2v30a2,2,0,0,0,1.95,1.94h3.67a2,2,0,0,0,1.94-1.94V22.17h9.05a5.23,5.23,0,0,1,3.29,1.39l8.87,8.91a4.66,4.66,0,0,0,3,1.4h6.82c1.06,0,1.32-.62.57-1.38Zm-2.48-7H251.41V7.67h18.33a2.86,2.86,0,0,1,2.85,2.85V11a.78.78,0,0,1,0,.35v.39A2.86,2.86,0,0,1,269.74,14.56Z"/>
      <path class="cls-1"
            d="M156.05,26.1H134.4L155.73,7.36a4.82,4.82,0,0,0,1.44-3.22V2A2,2,0,0,0,155.22,0h-31.6a2,2,0,0,0-2,1.94V5.73a2,2,0,0,0,2,1.94H144L122.78,26.26a4.94,4.94,0,0,0-1.46,3.23v2.45a2,2,0,0,0,1.94,1.94h32.79A2,2,0,0,0,158,31.94V28.05A2,2,0,0,0,156.05,26.1Z"/>
      <path class="cls-1"
            d="M237.28,26.22H211.86V20.73h20.38a2,2,0,0,0,1.95-1.94V15.08a1.94,1.94,0,0,0-1.93-1.95H211.86V7.64h25.42a1.94,1.94,0,0,0,1.94-1.94V2A2,2,0,0,0,237.28,0H206.07A2,2,0,0,0,204.13,2V31.89a1.94,1.94,0,0,0,1.94,1.94h31.21a1.94,1.94,0,0,0,1.94-1.94V28.16A1.94,1.94,0,0,0,237.28,26.22Z"/>
      <path class="cls-1"
            d="M35,0H31.13A2,2,0,0,0,29.19,2V13.07H7.82V1.94A2,2,0,0,0,5.87,0H2A1.94,1.94,0,0,0,0,1.94v30A2,2,0,0,0,2,33.89H5.87a2,2,0,0,0,2-1.95V20.68H29.19V31.94a2,2,0,0,0,1.94,1.94H35a1.94,1.94,0,0,0,2-1.94V2A1.94,1.94,0,0,0,35,0Z"/>
      <path class="cls-1"
            d="M75.23,26.22H49.8V20.74H70.18a2,2,0,0,0,1.95-1.94V15.08a1.94,1.94,0,0,0-1.93-1.95H49.8V7.64H75.22a2,2,0,0,0,2-1.94V2a2,2,0,0,0-2-1.94H44A2,2,0,0,0,42.07,2V31.89A1.94,1.94,0,0,0,44,33.83H75.22a2,2,0,0,0,2-1.94V28.16A2,2,0,0,0,75.23,26.22Z"/>
      <path class="cls-1"
            d="M115.58.05H83.25A1.94,1.94,0,0,0,81.31,2V5.73a2,2,0,0,0,1.94,1.94H95.56V31.92a2,2,0,0,0,1.94,1.94h4.17a1.94,1.94,0,0,0,1.94-1.94V7.67h12a2,2,0,0,0,1.94-1.94V2A1.94,1.94,0,0,0,115.58.05Z"/>
      <path class="cls-1"
            d="M272.22,21.53a9.83,9.83,0,0,0,5.57-3l.06-.05a11.16,11.16,0,0,0,2.56-7.29A11.12,11.12,0,0,0,278.67,5,9.86,9.86,0,0,0,270.58.18l-1.67,0c-1.06,0-2.81-.06-3.88-.06L245.78,0A2,2,0,0,0,243.83,2v30a2,2,0,0,0,1.95,1.94h3.67a2,2,0,0,0,1.94-1.94V22.17h9.05a5.23,5.23,0,0,1,3.29,1.39l8.87,8.91a4.66,4.66,0,0,0,3,1.4h6.82c1.06,0,1.32-.62.57-1.38Zm-2.48-7H251.41V7.67h18.33a2.86,2.86,0,0,1,2.85,2.85V11a.78.78,0,0,1,0,.35v.39A2.86,2.86,0,0,1,269.74,14.56Z"/>
      <path class="cls-1"
            d="M156.05,26.1H134.4L155.73,7.36a4.82,4.82,0,0,0,1.44-3.22V2A2,2,0,0,0,155.22,0h-31.6a2,2,0,0,0-2,1.94V5.73a2,2,0,0,0,2,1.94H144L122.78,26.26a4.94,4.94,0,0,0-1.46,3.23v2.45a2,2,0,0,0,1.94,1.94h32.79A2,2,0,0,0,158,31.94V28.05A2,2,0,0,0,156.05,26.1Z"/>
      <rect class="cls-2" height="1.85" width="158" y="53.15"/>
      <rect class="cls-2" height="1.85" width="27.98" x="255.49" y="53.15"/>
      <path class="cls-2"
            d="M166.66,42.1c-3.28,0-4.68,1.46-4.68,4.9v3.24c0,3.44,1.4,4.9,4.68,4.9h6.84c3.28,0,4.68-1.46,4.68-4.9V47c0-3.44-1.4-4.9-4.68-4.9Zm-2.17,8.75V46.39c0-1.49.65-2.07,2.33-2.07h6.51c1.68,0,2.34.58,2.34,2.07v4.46c0,1.49-.66,2.07-2.34,2.07h-6.51C165.14,52.92,164.49,52.34,164.49,50.85Z"/>
      <path class="cls-2" d="M194.42,42.23v9.82l-10.23-9.82h-3V55h2.51V45.19L193.91,55h3V42.23Z"/>
      <path class="cls-2" d="M200.23,42.23V55H212V52.79h-9.22V42.23Z"/>
      <rect class="cls-2" height="12.78" width="2.51" x="213.97" y="42.23"/>
      <path class="cls-2" d="M233.08,42.23v9.82l-10.23-9.82h-3V55h2.51V45.19L232.57,55h3V42.23Z"/>
      <path class="cls-2" d="M238.89,42.23V55h12.63V52.79H241.4V49.55h9.66V47.33H241.4V44.45h10V42.23Z"/>
      <path class="cls-1"
            d="M199.64,11.84c0-.21,0-.45,0-.73A11.12,11.12,0,0,0,197.91,5,10.06,10.06,0,0,0,189.75,0H164A1.94,1.94,0,0,0,162,2v30A1.94,1.94,0,0,0,164,33.87h4.11A1.94,1.94,0,0,0,170,32V7.67h16.49a5.19,5.19,0,0,1,5.18,5.18V31.92a1.94,1.94,0,0,0,1.94,1.94h4.07a1.94,1.94,0,0,0,1.94-1.94V11.84Z"/>
    </g>
  </g>
</svg>
