<?xml version="1.0" encoding="utf-8"?>
<!-- Generator: Adobe Illustrator 19.1.0, SVG Export Plug-In . SVG Version: 6.00 Build 0)  -->
<svg version="1.1" id="Ebene_1" xmlns="http://www.w3.org/2000/svg" xmlns:xlink="http://www.w3.org/1999/xlink" x="0px" y="0px"
	 viewBox="0 0 419.5 297.6" style="enable-background:new 0 0 419.5 297.6;" xml:space="preserve">
<style type="text/css">
	.st0{fill:#24244C;}
	.st1{fill:#FF4D67;}
</style>
<g>
	<rect x="96.4" y="122.9" class="st0" width="12.5" height="52.5"/>
	<polygon class="st0" points="199.3,175.4 199.3,122.9 186.8,122.9 186.8,155 162.8,122.9 157.3,122.9 150.8,122.9 150.8,122.9 
		150.8,155 126.9,122.9 114.9,122.9 114.9,175.4 127.4,175.4 127.4,143.4 151.3,175.4 153.4,175.4 160.5,175.4 163.4,175.4 
		163.4,143.4 187.3,175.4 	"/>
	<g>
		<path class="st0" d="M231.3,133.9c8.5,0,14.6,6.2,14.6,15.2c0,9-6.1,15.2-14.6,15.2c-8.6,0-14.6-6.2-14.6-15.2
			C216.7,140.1,222.8,133.9,231.3,133.9 M231.3,121.9c-16.2,0-27.7,11.6-27.7,27.2s11.5,27.2,27.7,27.2s27.7-11.6,27.7-27.2
			S247.5,121.9,231.3,121.9"/>
		<path class="st1" d="M290.2,133.9c8.5,0,14.6,6.2,14.6,15.2c0,1.7-0.2,3.3-0.6,4.8l-1.7-2.3h-13.6l8.3,11.1c-2,1-4.4,1.6-6.9,1.6
			c-8.5,0-14.6-6.2-14.6-15.2C275.6,140.2,281.7,133.9,290.2,133.9 M290.2,121.9c-16.2,0-27.7,11.6-27.7,27.2s11.5,27.2,27.7,27.2
			c5.5,0,10.2-1.5,14.2-4.1l2.3,3.1h14.7l-8.3-11.2c2.9-4.2,4.6-9.1,4.6-15C317.9,133.5,306.4,121.9,290.2,121.9"/>
	</g>
</g>
</svg>
