<?xml version="1.0" encoding="utf-8"?>
<!-- Generator: Adobe Illustrator 23.0.0, SVG Export Plug-In . SVG Version: 6.00 Build 0)  -->
<svg id="Ebene_1" style="enable-background:new 0 0 155 19;" version="1.1" viewBox="0 0 155 19"
     x="0px"
     xml:space="preserve" xmlns="http://www.w3.org/2000/svg" y="0px">
<style type="text/css">
	.st0 {
    fill: #13002C;
  }
</style>
  <g>
	<path class="st0" d="M33.6,3.4h-3.4v5.1h3.4c1.7,0,2.7-1,2.7-2.5S35.2,3.4,33.6,3.4 M33.7,11.8h-3.6v7h-3.6V0.2h7.2
		c3.9,0,6.2,2.6,6.2,5.8S37.6,11.8,33.7,11.8"/>
</g>
  <path class="st0" d="M48,5.7l2.3,6.8h-4.6L48,5.7z M46.5,0.2l-6.8,18.7h3.8l1.1-3.3h6.6l1.1,3.3h3.8L49.3,0.2H46.5z"/>
  <polygon class="st0" points="58.5,0.2 58.5,18.8 70.8,18.8 70.8,15.6 62.1,15.6 62.1,11 69.5,11 69.5,7.8 62.1,7.8 62.1,3.4
	70.8,3.4 70.8,0.2 "/>
  <g>
	<path class="st0" d="M79.5,19c-2.8,0-5-0.6-6.8-2.5l2.4-2.4c1.2,1.2,2.8,1.6,4.5,1.6c2.2,0,3.3-0.8,3.3-2.3c0-0.7-0.2-1.2-0.6-1.6
		c-0.4-0.3-0.8-0.5-1.7-0.7l-2.3-0.3c-1.6-0.2-2.8-0.7-3.6-1.5c-0.9-0.9-1.3-2.1-1.3-3.7c0-3.3,2.5-5.7,6.5-5.7c2.6,0,4.4,0.6,6,2.2
		l-2.3,2.3c-1.2-1.1-2.6-1.3-3.8-1.3c-1.9,0-2.9,1.1-2.9,2.4c0,0.5,0.2,1,0.6,1.3c0.4,0.3,1,0.6,1.7,0.7l2.2,0.3
		c1.7,0.2,2.8,0.7,3.6,1.4c1,0.9,1.4,2.3,1.4,4C86.4,17,83.4,19,79.5,19"/>
    <path class="st0" d="M95,19c-2.8,0-5-0.6-6.8-2.5l2.4-2.4c1.2,1.2,2.8,1.6,4.5,1.6c2.2,0,3.3-0.8,3.3-2.3c0-0.7-0.2-1.2-0.6-1.6
		c-0.4-0.3-0.8-0.5-1.7-0.7l-2.3-0.3c-1.6-0.2-2.8-0.7-3.6-1.5c-0.9-0.9-1.3-2.1-1.3-3.7c0-3.3,2.5-5.7,6.5-5.7c2.6,0,4.4,0.6,6,2.2
		l-2.3,2.3c-1.2-1.1-2.6-1.3-3.8-1.3c-1.9,0-2.9,1.1-2.9,2.4c0,0.5,0.2,1,0.6,1.3c0.4,0.3,1,0.6,1.7,0.7l2.2,0.3
		c1.7,0.2,2.8,0.7,3.6,1.4c1,0.9,1.4,2.3,1.4,4C101.9,17,98.9,19,95,19"/>
</g>
  <polygon class="st0" points="105.4,0.2 105.4,18.8 117.5,18.8 117.5,15.6 109,15.6 109,0.2 "/>
  <polygon class="st0" points="120.4,0.2 120.4,18.8 132.8,18.8 132.8,15.6 124.1,15.6 124.1,11 131.5,11 131.5,7.8 124.1,7.8
	124.1,3.4 132.8,3.4 132.8,0.2 "/>
  <g>
	<path class="st0" d="M143.4,3.4H140v4.9h3.4c1.6,0,2.7-1,2.7-2.5C146.1,4.4,145,3.4,143.4,3.4 M146.2,18.8l-3.6-7.5H140v7.5h-3.6
		V0.2h7.3c3.8,0,6.1,2.6,6.1,5.7c0,2.6-1.6,4.3-3.4,4.9l4.2,8.1H146.2z"/>
    <path class="st0" d="M9.1,6.9c0,1.3-1.1,2.4-2.4,2.4S4.4,8.2,4.4,6.9s1.1-2.4,2.4-2.4S9.1,5.6,9.1,6.9 M10.7,6.9
		C10.7,4.7,8.9,3,6.8,3C4.6,3,2.8,4.7,2.8,6.9s1.8,3.9,3.9,3.9C8.9,10.8,10.7,9.1,10.7,6.9 M17.1,17.3H1.5l0-3c0,0,2,1.5,5,1.5
		c5,0,9.1-4.1,9.1-9.1c0-1.9-0.5-3.5-1.5-5.1l3,0V17.3z M14.1,6.8c0,4.2-3.4,7.5-7.6,7.5c-1.8,0-3.7-0.7-5-1.9c0,0,0-10.7,0-10.7
		h10.7C12.2,1.7,14.1,3.6,14.1,6.8 M18.7,0.2H0v18.7h18.7V0.2z"/>
</g>
</svg>
