<?xml version="1.0" encoding="utf-8"?>
<!-- Generator: Adobe Illustrator 15.0.0, SVG Export Plug-In  -->
<!DOCTYPE svg PUBLIC "-//W3C//DTD SVG 1.1//EN" "http://www.w3.org/Graphics/SVG/1.1/DTD/svg11.dtd" [
	<!ENTITY ns_flows "http://ns.adobe.com/Flows/1.0/">
]>
<svg version="1.1"
	 xmlns="http://www.w3.org/2000/svg" xmlns:xlink="http://www.w3.org/1999/xlink" xmlns:a="http://ns.adobe.com/AdobeSVGViewerExtensions/3.0/"
	 x="0px" y="0px" width="345px" height="107px" viewBox="0 0 345 107" enable-background="new 0 0 345 107" xml:space="preserve">
<defs>
</defs>
<path fill="#D11317" d="M2.456,54.658c0-0.751-0.748-1.125-1.123-1.125v-0.751h18.364c6.745,0,13.115,1.876,13.115,9.747
	c0,7.869-6.37,9.743-13.115,9.743h-7.872v8.62c0,1.123,0.751,1.123,1.5,1.123v1.125H1.333v-1.125c0.375,0,1.123,0,1.123-1.123
	V54.658z M11.826,66.65h6.371c3.75,0,5.622-1.125,5.622-4.121c0-2.623-1.497-4.125-4.871-4.125h-7.121V66.65z"/>
<path fill="#D11317" d="M67.293,76.77c1.125,0,1.874-0.375,1.874-1.5h0.749v8.995h-0.375c-0.749-1.125-1.124-1.125-2.249-1.125
	H36.936v-1.124c0.749,0,1.874,0,1.874-1.123V54.657c0-0.749-1.125-1.124-1.874-1.124v-0.75h31.106c0.376,0,1.125-0.375,1.125-1.498
	h0.749v8.994h-0.749c0-1.124-0.749-1.498-1.125-1.498H47.805v5.621h13.117c0.375,0,1.124-0.375,1.124-1.501h0.749v8.998h-0.749
	c0-1.5-0.749-1.872-1.124-1.872H47.805v6.744H67.293z"/>
<path fill="#D11317" d="M111.891,80.893c0,1.123,0.749,1.123,1.874,1.123v1.124h-12.369v-1.124c0.376,0,1.874,0,1.874-0.749
	c0-1.499-8.993-9.369-16.488-18.365h-0.375v17.991c0,1.123,0.749,1.123,1.874,1.123v1.124H76.661v-1.124c0.75,0,1.5,0,1.5-1.123
	V54.657c0-0.749-0.749-1.124-1.874-1.124v-0.75h16.491v0.75c-0.749,0-1.5,0.375-1.5,1.124c0,0.751,6.745,7.496,12.366,13.867V54.657
	c0-0.749-0.749-1.124-1.872-1.124v-0.75h11.993v0.75c-1.125,0-1.874,0.375-1.874,1.124V80.893z"/>
<path fill="#D11317" d="M147.868,52.783c0.376,0,1.125-0.374,1.125-1.499h0.749v10.12h-0.749c0-1.5-0.749-1.5-1.125-1.5h-9.744
	v20.988c0,1.123,0.749,1.123,1.5,1.123v1.124h-12.368v-1.124c0.751,0,1.5,0,1.5-1.123V59.904h-9.744c-0.749,0-1.5,0-1.5,1.5h-0.748
	v-10.12h0.748c0,1.125,0.75,1.499,1.5,1.499H147.868z"/>
<path fill="#D11317" d="M176.351,83.141v-1.125c0.375,0,1.124,0,1.124-0.374c0-0.749-1.496-3.374-2.249-4.872h-15.739
	c-0.376,1.498-2.249,4.123-2.249,4.872c0,0.374,0.749,0.374,1.124,0.374v1.125h-10.492v-1.125c0.749,0,1.123,0,1.499-0.374
	c5.623-13.117,11.993-26.234,11.993-27.358c0-0.376-0.375-0.75-1.125-0.75v-0.749h14.617v0.749c-0.749,0-1.124,0.374-1.124,0.75
	c0,0.749,9.742,20.236,12.742,27.358c0.375,0.374,0.749,0.374,1.498,0.374v1.125H176.351z M172.978,71.898l-5.621-11.994
	l-5.622,11.994H172.978z"/>
<path fill="#E65014" d="M193.215,72.647l0.752,0.375v0.749c0,1.501,7.869,3.374,13.492,3.374c1.498,0,5.995-0.375,5.995-2.999
	c0-5.246-22.486,0-22.486-11.616c0-4.125,4.123-10.12,15.364-10.12c6.746,0,12.368,1.874,13.866,1.874
	c0.752,0,1.127-0.75,1.501-1.125l0.749,0.375l-4.123,8.622l-1.124-0.378c0,0,0.375-0.375,0.375-0.749
	c0-0.749-4.874-2.623-9.743-2.623c-1.501,0-7.873,0-7.873,2.998c0,4.873,22.488,0,22.488,11.994c0,5.246-4.497,10.12-14.989,10.12
	c-6.748,0-14.244-2.623-14.993-2.623c-0.375,0-1.124,0.374-1.498,1.123l-0.749-0.374L193.215,72.647z"/>
<path fill="#E65014" d="M247.934,80.893c0,1.123,0.749,1.123,1.498,1.123v1.124h-11.994v-1.124c0.376,0,1.5,0,1.5-1.123v-8.995
	L225.82,54.283c-0.375-0.749-1.5-0.749-2.249-0.749v-0.75h14.991v0.75c-0.749,0-1.874,0-1.874,0.749s4.123,5.622,6.748,9.37
	c0.749-1.5,5.995-8.621,5.995-9.37s-1.124-0.749-1.498-0.749v-0.75h13.492v0.75c-0.378,0-1.502,0-1.876,0.749l-11.616,17.615V80.893
	z"/>
<path fill="#E65014" d="M265.923,72.647l1.123,0.375v0.749c0,1.501,7.871,3.374,13.117,3.374c1.872,0,6.371-0.375,6.371-2.999
	c0-5.246-22.487,0-22.487-11.616c0-4.125,4.123-10.12,15.367-10.12c6.37,0,11.99,1.874,13.492,1.874c0.749,0,1.123-0.75,1.497-1.125
	l0.749,0.375l-4.122,8.622l-0.747-0.378v-0.749c0-0.749-4.874-2.623-9.371-2.623c-1.872,0-7.869,0-7.869,2.998
	c0,4.873,22.487,0,22.487,11.994c0,5.246-4.5,10.12-14.992,10.12c-6.746,0-14.241-2.623-14.99-2.623
	c-0.752,0-1.127,0.374-1.501,1.123l-0.749-0.374L265.923,72.647z"/>
<path fill="#1E1E1C" d="M168.997,94.995h1.277v6.818c0,1.145-0.112,2.084-0.335,2.815c-0.224,0.733-0.626,1.311-1.211,1.734
	c-0.586,0.425-1.334,0.637-2.24,0.637c-1.273,0-2.229-0.382-2.865-1.145c-0.632-0.762-0.951-2.109-0.951-4.042v-6.818h1.277v6.814
	c0,1.067,0.083,1.841,0.25,2.321c0.166,0.476,0.439,0.841,0.817,1.09c0.378,0.253,0.84,0.375,1.382,0.375
	c0.912,0,1.572-0.257,1.983-0.772c0.41-0.518,0.616-1.522,0.616-3.014V94.995z"/>
<path fill="#1E1E1C" d="M172.267,106.8v-8.549h1.065v1.219c0.257-0.472,0.571-0.823,0.946-1.057
	c0.371-0.233,0.799-0.348,1.283-0.348c0.375,0,0.724,0.07,1.042,0.219c0.318,0.148,0.576,0.343,0.774,0.579
	c0.194,0.239,0.339,0.55,0.438,0.93c0.095,0.381,0.145,0.966,0.145,1.756v5.251h-1.186v-5.198c0-0.627-0.055-1.085-0.161-1.376
	c-0.106-0.29-0.275-0.513-0.503-0.671c-0.228-0.157-0.489-0.237-0.793-0.237c-0.567,0-1.021,0.212-1.361,0.635
	c-0.337,0.425-0.507,1.151-0.507,2.183v4.665H172.267z"/>
<path fill="#1E1E1C" d="M179.331,104.248l1.184-0.223c0.067,0.601,0.258,1.049,0.567,1.34c0.313,0.296,0.726,0.44,1.238,0.44
	s0.911-0.127,1.194-0.384c0.279-0.252,0.419-0.574,0.419-0.966c0-0.339-0.119-0.601-0.359-0.788
	c-0.169-0.129-0.572-0.289-1.211-0.483c-0.92-0.283-1.539-0.525-1.852-0.725c-0.311-0.198-0.551-0.463-0.724-0.797
	c-0.169-0.33-0.258-0.712-0.258-1.134c0-0.733,0.233-1.323,0.701-1.778c0.466-0.46,1.111-0.688,1.938-0.688
	c0.522,0,0.979,0.094,1.374,0.284c0.394,0.188,0.696,0.44,0.906,0.755c0.207,0.315,0.352,0.771,0.433,1.363l-1.159,0.196
	c-0.106-0.937-0.613-1.402-1.517-1.402c-0.514,0-0.899,0.102-1.15,0.309c-0.251,0.205-0.376,0.468-0.376,0.786
	s0.118,0.567,0.358,0.749c0.145,0.105,0.576,0.277,1.29,0.512c0.984,0.308,1.62,0.555,1.91,0.742
	c0.288,0.188,0.514,0.438,0.673,0.758c0.163,0.319,0.24,0.701,0.24,1.143c0,0.818-0.256,1.479-0.775,1.982
	c-0.52,0.505-1.224,0.76-2.122,0.76C180.575,107,179.596,106.081,179.331,104.248"/>
<path fill="#1E1E1C" d="M191.328,104.05l1.233,0.186c-0.205,0.915-0.574,1.602-1.109,2.068c-0.534,0.463-1.192,0.696-1.982,0.696
	c-0.989,0-1.795-0.379-2.406-1.131c-0.615-0.756-0.924-1.843-0.924-3.265c0-1.477,0.309-2.604,0.931-3.377
	c0.62-0.775,1.402-1.164,2.354-1.164c0.904,0,1.661,0.382,2.268,1.145c0.604,0.762,0.908,1.863,0.908,3.307l-0.007,0.387h-5.223
	c0.048,0.959,0.269,1.682,0.664,2.173c0.396,0.487,0.876,0.731,1.441,0.731C190.364,105.806,190.982,105.221,191.328,104.05
	 M187.442,101.706h3.898c-0.055-0.737-0.21-1.29-0.472-1.652c-0.382-0.529-0.866-0.794-1.456-0.794c-0.526,0-0.979,0.219-1.353,0.66
	S187.481,100.959,187.442,101.706"/>
<path fill="#1E1E1C" d="M194.071,106.8v-8.549h1.065v1.304c0.272-0.601,0.524-1,0.752-1.196c0.229-0.194,0.487-0.293,0.773-0.293
	c0.396,0,0.8,0.155,1.215,0.466l-0.399,1.35c-0.293-0.212-0.583-0.317-0.86-0.317c-0.252,0-0.486,0.088-0.694,0.267
	c-0.21,0.175-0.357,0.422-0.445,0.74c-0.152,0.551-0.227,1.137-0.227,1.761v4.469H194.071z"/>
<path fill="#1E1E1C" d="M202.46,106.8V94.995h1.922l2.3,8.358l0.456,1.745c0.115-0.433,0.286-1.063,0.516-1.89l2.315-8.214h1.721
	V106.8h-1.231v-9.868l-2.809,9.868h-1.153l-2.805-10.063V106.8H202.46z"/>
<path fill="#1E1E1C" d="M218.165,105.753c-0.397,0.411-0.811,0.724-1.238,0.933c-0.431,0.21-0.876,0.314-1.339,0.314
	c-0.729,0-1.311-0.22-1.749-0.661c-0.435-0.438-0.65-1.031-0.65-1.778c0-0.493,0.101-0.928,0.306-1.313
	c0.2-0.378,0.482-0.675,0.835-0.895c0.354-0.212,0.89-0.37,1.607-0.473c0.966-0.142,1.675-0.314,2.123-0.516l0.011-0.368
	c0-0.583-0.106-0.989-0.314-1.226c-0.297-0.343-0.749-0.512-1.356-0.512c-0.555,0-0.964,0.112-1.24,0.341
	c-0.272,0.229-0.473,0.658-0.602,1.285l-1.171-0.199c0.166-0.915,0.502-1.579,1.011-1.996c0.508-0.417,1.233-0.625,2.178-0.625
	c0.736,0,1.313,0.138,1.733,0.411c0.417,0.277,0.684,0.62,0.791,1.028c0.11,0.408,0.167,1.003,0.167,1.786v1.931
	c0,1.351,0.026,2.202,0.078,2.554c0.047,0.352,0.148,0.694,0.296,1.026h-1.24C218.28,106.505,218.202,106.157,218.165,105.753
	 M218.061,102.513c-0.431,0.22-1.079,0.401-1.938,0.552c-0.498,0.088-0.846,0.184-1.044,0.293c-0.198,0.113-0.35,0.265-0.461,0.468
	c-0.111,0.201-0.168,0.433-0.168,0.694c0,0.408,0.127,0.733,0.378,0.979c0.254,0.244,0.601,0.366,1.046,0.366
	c0.424,0,0.809-0.111,1.155-0.331c0.346-0.221,0.604-0.512,0.775-0.881c0.175-0.367,0.256-0.904,0.256-1.607V102.513z"/>
<path fill="#1E1E1C" d="M221.269,106.8v-8.042c0-1.024,0.103-1.799,0.309-2.314c0.208-0.519,0.535-0.922,0.984-1.211
	c0.449-0.292,0.961-0.437,1.537-0.437c0.712,0,1.296,0.223,1.756,0.666c0.456,0.441,0.686,0.985,0.686,1.628
	c0,0.269-0.039,0.548-0.11,0.834c-0.074,0.286-0.212,0.653-0.42,1.099c-0.311,0.664-0.466,1.114-0.466,1.345
	c0,0.199,0.06,0.394,0.177,0.588c0.08,0.142,0.335,0.378,0.763,0.715c0.669,0.539,1.105,0.988,1.311,1.345
	c0.2,0.36,0.304,0.78,0.304,1.267c0,0.786-0.233,1.438-0.701,1.948c-0.466,0.516-1.033,0.771-1.705,0.771
	c-0.519,0-0.993-0.17-1.418-0.508c-0.427-0.337-0.752-0.817-0.977-1.436l1.017-0.576c0.389,0.884,0.837,1.325,1.335,1.325
	c0.329,0,0.613-0.136,0.858-0.406c0.248-0.271,0.371-0.604,0.371-0.993c0-0.269-0.053-0.494-0.152-0.678
	c-0.103-0.181-0.367-0.449-0.793-0.802c-0.684-0.574-1.124-1.018-1.316-1.329c-0.194-0.311-0.293-0.639-0.293-0.99
	c0-0.207,0.032-0.419,0.088-0.626c0.06-0.208,0.192-0.535,0.399-0.973c0.378-0.81,0.565-1.399,0.565-1.763
	c0-0.349-0.124-0.644-0.375-0.891c-0.249-0.244-0.563-0.364-0.939-0.364c-0.52,0-0.918,0.194-1.196,0.58
	c-0.277,0.385-0.415,1.137-0.415,2.254v7.975H221.269z"/>
<path fill="#1E1E1C" d="M228.924,104.248l1.182-0.223c0.069,0.601,0.26,1.049,0.571,1.34c0.309,0.296,0.721,0.44,1.235,0.44
	c0.516,0,0.91-0.127,1.192-0.384c0.279-0.252,0.42-0.574,0.42-0.966c0-0.339-0.118-0.601-0.36-0.788
	c-0.169-0.129-0.57-0.289-1.208-0.483c-0.922-0.283-1.54-0.525-1.851-0.725c-0.313-0.198-0.553-0.463-0.728-0.797
	c-0.169-0.33-0.256-0.712-0.256-1.134c0-0.733,0.233-1.323,0.701-1.778c0.466-0.46,1.113-0.688,1.939-0.688
	c0.521,0,0.979,0.094,1.374,0.284c0.393,0.188,0.693,0.44,0.905,0.755c0.207,0.315,0.353,0.771,0.435,1.363l-1.161,0.196
	c-0.108-0.937-0.613-1.402-1.518-1.402c-0.514,0-0.897,0.102-1.148,0.309c-0.254,0.205-0.378,0.468-0.378,0.786
	s0.12,0.567,0.36,0.749c0.145,0.105,0.574,0.277,1.288,0.512c0.984,0.308,1.622,0.555,1.91,0.742
	c0.29,0.188,0.516,0.438,0.674,0.758c0.159,0.319,0.24,0.701,0.24,1.143c0,0.818-0.258,1.479-0.777,1.982
	c-0.516,0.505-1.226,0.76-2.12,0.76C230.166,107,229.189,106.081,228.924,104.248"/>
<path fill="#1E1E1C" d="M238.777,105.513l0.163,1.276c-0.325,0.087-0.622,0.128-0.883,0.128c-0.41,0-0.747-0.08-1-0.246
	c-0.251-0.162-0.422-0.389-0.516-0.671c-0.095-0.284-0.14-0.852-0.14-1.701v-4.923h-0.867v-1.125h0.867v-2.12l1.182-0.867v2.987
	h1.194v1.125h-1.194v5.001c0,0.461,0.033,0.758,0.102,0.894c0.103,0.192,0.293,0.289,0.569,0.289
	C238.388,105.56,238.562,105.544,238.777,105.513"/>
<path fill="#1E1E1C" d="M244.47,105.753c-0.401,0.411-0.813,0.724-1.238,0.933c-0.435,0.21-0.876,0.314-1.339,0.314
	c-0.729,0-1.314-0.22-1.749-0.661c-0.435-0.438-0.652-1.031-0.652-1.778c0-0.493,0.103-0.928,0.306-1.313
	c0.201-0.378,0.484-0.675,0.835-0.895c0.355-0.212,0.89-0.37,1.609-0.473c0.966-0.142,1.674-0.314,2.123-0.516l0.011-0.368
	c0-0.583-0.106-0.989-0.314-1.226c-0.297-0.343-0.749-0.512-1.357-0.512c-0.555,0-0.968,0.112-1.24,0.341
	c-0.272,0.229-0.477,0.658-0.604,1.285l-1.169-0.199c0.166-0.915,0.501-1.579,1.01-1.996c0.505-0.417,1.233-0.625,2.178-0.625
	c0.733,0,1.312,0.138,1.731,0.411c0.418,0.277,0.684,0.62,0.793,1.028c0.111,0.408,0.166,1.003,0.166,1.786v1.931
	c0,1.351,0.025,2.202,0.078,2.554c0.048,0.352,0.148,0.694,0.297,1.026h-1.24C244.585,106.505,244.507,106.157,244.47,105.753
	 M244.366,102.513c-0.433,0.22-1.079,0.401-1.938,0.552c-0.498,0.088-0.846,0.184-1.044,0.293c-0.198,0.113-0.35,0.265-0.462,0.468
	c-0.11,0.201-0.166,0.433-0.166,0.694c0,0.408,0.127,0.733,0.378,0.979c0.252,0.244,0.601,0.366,1.045,0.366
	c0.424,0,0.808-0.111,1.155-0.331c0.346-0.221,0.604-0.512,0.774-0.881c0.176-0.367,0.258-0.904,0.258-1.607V102.513z"/>
<path fill="#1E1E1C" d="M248.511,106.8h-1.1V94.995h1.194v4.222c0.251-0.385,0.537-0.675,0.858-0.865
	c0.318-0.191,0.675-0.286,1.067-0.286c0.548,0,1.046,0.162,1.494,0.491c0.447,0.326,0.806,0.823,1.074,1.487
	c0.265,0.667,0.402,1.475,0.402,2.423c0,1.448-0.304,2.568-0.911,3.353c-0.611,0.788-1.319,1.181-2.134,1.181
	c-0.41,0-0.777-0.106-1.102-0.318c-0.325-0.212-0.604-0.53-0.843-0.95V106.8z M248.492,102.467c0,0.884,0.079,1.548,0.242,1.987
	c0.165,0.44,0.391,0.775,0.687,1.005c0.297,0.229,0.625,0.347,0.986,0.347c0.491,0,0.925-0.275,1.307-0.825
	c0.38-0.549,0.568-1.372,0.568-2.464c0-1.12-0.182-1.943-0.549-2.47s-0.818-0.787-1.35-0.787c-0.489,0-0.927,0.275-1.313,0.822
	C248.686,100.634,248.492,101.429,248.492,102.467"/>
<path fill="#1E1E1C" d="M258.703,94.995h1.182v1.66h-1.182V94.995z M258.703,98.251h1.182v8.551h-1.182V98.251z"/>
<path fill="#1E1E1C" d="M261.249,104.248l1.184-0.223c0.07,0.601,0.258,1.049,0.568,1.34c0.311,0.296,0.725,0.44,1.236,0.44
	c0.516,0,0.913-0.127,1.194-0.384c0.279-0.252,0.419-0.574,0.419-0.966c0-0.339-0.119-0.601-0.362-0.788
	c-0.164-0.129-0.567-0.289-1.207-0.483c-0.924-0.283-1.54-0.525-1.853-0.725c-0.311-0.198-0.551-0.463-0.723-0.797
	c-0.171-0.33-0.26-0.712-0.26-1.134c0-0.733,0.235-1.323,0.703-1.778c0.465-0.46,1.113-0.688,1.939-0.688
	c0.52,0,0.976,0.094,1.373,0.284c0.392,0.188,0.694,0.44,0.904,0.755c0.21,0.315,0.352,0.771,0.433,1.363l-1.155,0.196
	c-0.109-0.937-0.616-1.402-1.521-1.402c-0.515,0-0.899,0.102-1.15,0.309c-0.251,0.205-0.378,0.468-0.378,0.786
	s0.124,0.567,0.364,0.749c0.141,0.105,0.572,0.277,1.285,0.512c0.984,0.308,1.62,0.555,1.912,0.742
	c0.287,0.188,0.512,0.438,0.673,0.758c0.158,0.319,0.24,0.701,0.24,1.143c0,0.818-0.258,1.479-0.777,1.982
	c-0.516,0.505-1.225,0.76-2.122,0.76C262.492,107,261.518,106.081,261.249,104.248"/>
<path fill="#1E1E1C" d="M271.105,105.513l0.162,1.276c-0.325,0.087-0.622,0.128-0.883,0.128c-0.414,0-0.747-0.08-1-0.246
	c-0.251-0.162-0.424-0.389-0.518-0.671c-0.094-0.284-0.14-0.852-0.14-1.701v-4.923h-0.865v-1.125h0.865v-2.12l1.18-0.867v2.987
	h1.198v1.125h-1.198v5.001c0,0.461,0.037,0.758,0.106,0.894c0.103,0.192,0.291,0.289,0.568,0.289
	C270.717,105.56,270.89,105.544,271.105,105.513"/>
<path fill="#1E1E1C" d="M280.534,106.8v-1.075c-0.216,0.415-0.491,0.73-0.83,0.948c-0.339,0.219-0.703,0.327-1.096,0.327
	c-0.826,0-1.542-0.391-2.146-1.172c-0.604-0.782-0.906-1.879-0.906-3.296c0-0.973,0.134-1.796,0.4-2.471
	c0.268-0.679,0.628-1.181,1.072-1.505c0.447-0.329,0.943-0.493,1.491-0.493c0.392,0,0.751,0.104,1.088,0.311
	c0.336,0.207,0.611,0.497,0.83,0.867v-4.246h1.208V106.8H280.534z M276.775,102.539c0,1.106,0.19,1.926,0.572,2.463
	c0.385,0.535,0.834,0.804,1.346,0.804c0.504,0,0.941-0.258,1.313-0.771c0.369-0.516,0.555-1.295,0.555-2.335
	c0-1.194-0.186-2.066-0.555-2.618c-0.371-0.547-0.839-0.822-1.402-0.822c-0.5,0-0.929,0.263-1.289,0.791
	C276.955,100.579,276.775,101.409,276.775,102.539"/>
<path fill="#1E1E1C" d="M288.288,104.05l1.229,0.186c-0.203,0.915-0.572,1.602-1.105,2.068c-0.533,0.463-1.194,0.696-1.981,0.696
	c-0.991,0-1.797-0.379-2.41-1.131c-0.612-0.756-0.92-1.843-0.92-3.265c0-1.477,0.31-2.604,0.928-3.377
	c0.621-0.775,1.405-1.164,2.356-1.164c0.904,0,1.66,0.382,2.268,1.145c0.607,0.762,0.911,1.863,0.911,3.307l-0.01,0.387h-5.224
	c0.048,0.959,0.267,1.682,0.664,2.173c0.396,0.487,0.878,0.731,1.443,0.731C287.324,105.806,287.942,105.221,288.288,104.05
	 M284.4,101.706h3.9c-0.053-0.737-0.212-1.29-0.472-1.652c-0.382-0.529-0.865-0.794-1.453-0.794c-0.532,0-0.982,0.219-1.357,0.66
	C284.645,100.361,284.438,100.959,284.4,101.706"/>
<path fill="#1E1E1C" d="M291.03,106.8v-8.549h1.064v1.304c0.276-0.601,0.526-1,0.755-1.196c0.228-0.194,0.483-0.293,0.77-0.293
	c0.396,0,0.803,0.155,1.216,0.466l-0.396,1.35c-0.297-0.212-0.583-0.317-0.862-0.317c-0.255,0-0.484,0.088-0.696,0.267
	c-0.208,0.175-0.356,0.422-0.441,0.74c-0.151,0.551-0.226,1.137-0.226,1.761v4.469H291.03z"/>
<path fill="#D11317" d="M299.42,106.8V94.995h1.922l2.297,8.358l0.459,1.745c0.113-0.433,0.284-1.063,0.518-1.89l2.313-8.214h1.72
	V106.8h-1.229v-9.868l-2.81,9.868h-1.153l-2.806-10.063V106.8H299.42z"/>
<path fill="#D11317" d="M315.332,104.05l1.231,0.186c-0.203,0.915-0.573,1.602-1.106,2.068c-0.533,0.463-1.195,0.696-1.983,0.696
	c-0.993,0-1.795-0.379-2.407-1.131c-0.613-0.756-0.921-1.843-0.921-3.265c0-1.477,0.31-2.604,0.928-3.377
	c0.62-0.775,1.404-1.164,2.354-1.164c0.908,0,1.664,0.382,2.268,1.145c0.608,0.762,0.912,1.863,0.912,3.307l-0.007,0.387h-5.226
	c0.046,0.959,0.269,1.682,0.664,2.173c0.396,0.487,0.876,0.731,1.443,0.731C314.369,105.806,314.987,105.221,315.332,104.05
	 M311.446,101.706h3.899c-0.055-0.737-0.212-1.29-0.473-1.652c-0.382-0.529-0.864-0.794-1.454-0.794c-0.53,0-0.98,0.219-1.354,0.66
	C311.689,100.361,311.484,100.959,311.446,101.706"/>
<path fill="#D11317" d="M318.077,106.8v-8.549h1.063v1.219c0.259-0.472,0.573-0.823,0.946-1.057s0.799-0.348,1.284-0.348
	c0.376,0,0.723,0.07,1.042,0.219c0.318,0.148,0.578,0.343,0.772,0.579c0.195,0.239,0.343,0.55,0.438,0.93
	c0.1,0.381,0.146,0.966,0.146,1.756v5.251h-1.184v-5.198c0-0.627-0.054-1.085-0.161-1.376c-0.107-0.29-0.273-0.513-0.503-0.671
	c-0.23-0.157-0.491-0.237-0.794-0.237c-0.566,0-1.019,0.212-1.361,0.635c-0.336,0.425-0.507,1.151-0.507,2.183v4.665H318.077z"/>
<path fill="#D11317" d="M325.139,104.248l1.184-0.223c0.07,0.601,0.258,1.049,0.568,1.34c0.312,0.296,0.725,0.44,1.237,0.44
	c0.516,0,0.911-0.127,1.193-0.384c0.279-0.252,0.421-0.574,0.421-0.966c0-0.339-0.12-0.601-0.364-0.788
	c-0.166-0.129-0.568-0.289-1.206-0.483c-0.924-0.283-1.54-0.525-1.854-0.725c-0.311-0.198-0.551-0.463-0.724-0.797
	c-0.17-0.33-0.258-0.712-0.258-1.134c0-0.733,0.233-1.323,0.701-1.778c0.466-0.46,1.114-0.688,1.938-0.688
	c0.522,0,0.979,0.094,1.376,0.284c0.393,0.188,0.694,0.44,0.904,0.755c0.207,0.315,0.355,0.771,0.433,1.363l-1.158,0.196
	c-0.106-0.937-0.613-1.402-1.518-1.402c-0.516,0-0.897,0.102-1.148,0.309c-0.252,0.205-0.378,0.468-0.378,0.786
	s0.118,0.567,0.362,0.749c0.145,0.105,0.572,0.277,1.286,0.512c0.982,0.308,1.619,0.555,1.909,0.742s0.514,0.438,0.675,0.758
	c0.159,0.319,0.24,0.701,0.24,1.143c0,0.818-0.258,1.479-0.777,1.982c-0.516,0.505-1.224,0.76-2.121,0.76
	C326.383,107,325.407,106.081,325.139,104.248"/>
<path fill="#D11317" d="M336.949,103.674l1.171,0.188c-0.133,1.018-0.47,1.799-1.009,2.332c-0.54,0.537-1.188,0.806-1.944,0.806
	c-0.921,0-1.677-0.379-2.271-1.131c-0.592-0.756-0.889-1.869-0.889-3.346c0-1.487,0.299-2.604,0.899-3.346
	c0.599-0.741,1.367-1.114,2.307-1.114c0.727,0,1.338,0.226,1.838,0.677c0.494,0.45,0.813,1.129,0.953,2.031l-1.147,0.208
	c-0.113-0.575-0.31-1.005-0.591-1.293c-0.278-0.282-0.616-0.427-1.008-0.427c-0.587,0-1.071,0.259-1.458,0.775
	c-0.385,0.518-0.575,1.34-0.575,2.464c0,1.164,0.184,2.007,0.551,2.527c0.367,0.518,0.837,0.779,1.411,0.779
	c0.451,0,0.836-0.173,1.157-0.52C336.663,104.94,336.864,104.403,336.949,103.674"/>
<path fill="#D11317" d="M339.121,106.8V94.995h1.184v4.25c0.279-0.394,0.596-0.688,0.947-0.887c0.354-0.194,0.734-0.293,1.162-0.293
	c0.745,0,1.334,0.236,1.763,0.71c0.431,0.475,0.648,1.346,0.648,2.61v5.414h-1.182v-5.406c0-0.742-0.135-1.272-0.396-1.594
	c-0.262-0.321-0.624-0.482-1.083-0.482c-0.518,0-0.956,0.207-1.316,0.618c-0.363,0.415-0.544,1.144-0.544,2.196v4.668H339.121z"/>
<path fill="#D11317" d="M339.005,7.508l-10.87-5.247c0.374,0.75,0.374,1.5,0.374,2.249c0,4.124-2.246,7.496-5.62,8.621
	c0.145,0.432,0.724,7.407,7.494,6.371l7.495-1.5c3.748-0.749,6.748-2.623,7.122-4.497C345,11.631,342.751,9.008,339.005,7.508"/>
<path fill="#D11317" d="M314.269,4.51c0-1.499,0.376-2.999,0.751-4.122c-0.375,0.749-1.126,1.5-1.876,2.249l-8.993,9.369
	c-2.248,2.999-1.499,5.623,2.247,6.373l5.248,1.123c7.279,1.094,7.636-5.636,7.869-6.371C316.518,12.005,314.269,8.632,314.269,4.51
	"/>
<path fill="#D11317" d="M331.883,23.249c-3.374,1.5-4.872,5.622-2.999,8.621l2.248,4.123c1.876,3.373,5.248,5.622,7.12,5.246
	c2.251-0.375,4.125-3.747,4.499-7.494l1.124-9.744c0.374-3.749-2.249-5.247-5.623-3.749L331.883,23.249z"/>
<path fill="#D11317" d="M313.52,31.868c1.874-2.999,0.374-7.12-2.999-8.62l-5.246-2.624c-3.372-1.5-6.746-2.249-7.121-1.5
	c-0.75,0.376,0.375,3.749,2.249,6.747l4.872,8.619c1.876,3.374,4.871,3.374,6.745,0L313.52,31.868z"/>
<path fill="#D11317" d="M325.888,34.491c-2.625-2.997-6.746-2.997-9.37,0l-2.249,2.625c-2.625,2.623-4.123,5.996-3.374,7.119
	c0.749,1.5,4.123,1.875,7.871,1.125l7.871-1.874c3.372-0.749,4.495-3.373,1.872-5.996L325.888,34.491z"/>
<rect id="_x3C_Slice_x3E__1_" fill="none" width="345" height="107"/>
</svg>
